<svg width="16" height="16" viewBox="0 0 16 16" fill="none" xmlns="http://www.w3.org/2000/svg">
<g clip-path="url(#clip0_16_37)">
<path d="M3.65401 1.328C3.59498 1.25206 3.52046 1.18955 3.43542 1.14462C3.35037 1.0997 3.25673 1.07338 3.16073 1.06742C3.06473 1.06146 2.96856 1.076 2.87861 1.11006C2.78866 1.14413 2.70698 1.19694 2.63901 1.265L1.60501 2.3C1.12201 2.784 0.944013 3.469 1.15501 4.07C2.03075 6.55759 3.45531 8.81609 5.32301 10.678C7.18494 12.5457 9.44344 13.9702 11.931 14.846C12.532 15.057 13.217 14.879 13.701 14.396L14.735 13.362C14.8031 13.294 14.8559 13.2124 14.8899 13.1224C14.924 13.0324 14.9386 12.9363 14.9326 12.8403C14.9266 12.7443 14.9003 12.6506 14.8554 12.5656C14.8105 12.4805 14.748 12.406 14.672 12.347L12.365 10.553C12.2839 10.4901 12.1895 10.4464 12.0891 10.4253C11.9886 10.4041 11.8846 10.4061 11.785 10.431L9.59501 10.978C9.30269 11.0511 8.99644 11.0472 8.70606 10.9667C8.41568 10.8863 8.15108 10.7321 7.93801 10.519L5.48201 8.062C5.26878 7.84903 5.11434 7.58448 5.03373 7.2941C4.95311 7.00371 4.94908 6.6974 5.02201 6.405L5.57001 4.215C5.59492 4.11539 5.59688 4.01143 5.57575 3.91096C5.55461 3.81049 5.51094 3.71613 5.44801 3.635L3.65401 1.328ZM1.88401 0.510997C2.05901 0.335947 2.26924 0.200128 2.50075 0.112559C2.73226 0.0249895 2.97976 -0.0123258 3.22679 0.00309049C3.47383 0.0185068 3.71477 0.0863019 3.93359 0.201974C4.15242 0.317646 4.34414 0.478549 4.49601 0.673997L6.29001 2.98C6.61901 3.403 6.73501 3.954 6.60501 4.474L6.05801 6.664C6.02973 6.77743 6.03126 6.89624 6.06245 7.00891C6.09364 7.12157 6.15343 7.22426 6.23601 7.307L8.69301 9.764C8.77585 9.84675 8.87871 9.90664 8.99156 9.93783C9.10442 9.96903 9.22344 9.97046 9.33701 9.942L11.526 9.395C11.7826 9.33084 12.0505 9.32585 12.3093 9.38042C12.5681 9.43499 12.8111 9.54769 13.02 9.71L15.326 11.504C16.155 12.149 16.231 13.374 15.489 14.115L14.455 15.149C13.715 15.889 12.609 16.214 11.578 15.851C8.9392 14.9225 6.54329 13.4118 4.56801 11.431C2.5873 9.45601 1.07662 7.06046 0.148013 4.422C-0.213987 3.392 0.111013 2.285 0.851013 1.545L1.88501 0.510997H1.88401Z" fill="black"/>
</g>
<defs>
<clipPath id="clip0_16_37">
<rect width="16" height="16" fill="white"/>
</clipPath>
</defs>
</svg>
